<svg xmlns="http://www.w3.org/2000/svg" viewBox="0 0 180 180" fill="none" role="img" aria-label="UPIMesh touch icon">
  <defs>
    <linearGradient id="g" x1="40" y1="20" x2="140" y2="160" gradientUnits="userSpaceOnUse">
      <stop offset="0" stop-color="#24f0c5"/>
      <stop offset="1" stop-color="#00d9a1"/>
    </linearGradient>
  </defs>
  <rect width="180" height="180" rx="40" fill="#0b0d18"/>
  <g stroke="url(#g)" stroke-width="9" stroke-linecap="round" stroke-linejoin="round">
    <path d="M50 80V55l40-26 40 26v25"/>
    <path d="M55 95v36h70V95"/>
    <circle cx="90" cy="85" r="26"/>
    <path d="M107 68l24-24"/>
    <circle cx="35" cy="145" r="12"/>
    <circle cx="145" cy="35" r="12"/>
  </g>
  <path d="M98 74H89v-6h9c3 0 5-2 5-5s-2-5-5-5c-4 0-7 2-9 3l-4-4c3-3 8-6 14-6 6 0 11 4 11 10 0 5-3 8-7 10v1c5 2 8 5 8 11 0 8-7 13-16 13-6 0-12-2-16-6l4-4c3 3 7 4 12 4 5 0 8-3 8-7 0-4-3-7-10-7z" fill="#24f0c5"/>
</svg>
