<svg xmlns="http://www.w3.org/2000/svg" viewBox="0 0 256 256" fill="none" role="img" aria-label="UPIMesh favicon">
  <defs>
    <linearGradient id="g" x1="56" y1="28" x2="200" y2="228" gradientUnits="userSpaceOnUse">
      <stop offset="0" stop-color="#24f0c5"/>
      <stop offset="1" stop-color="#00d9a1"/>
    </linearGradient>
  </defs>
  <rect width="256" height="256" rx="56" fill="#0b0d18"/>
  <g stroke="url(#g)" stroke-width="13" stroke-linecap="round" stroke-linejoin="round">
    <path d="M72 116V77l56-37 56 37v39"/>
    <path d="M78 137v58h100v-58"/>
    <circle cx="128" cy="122" r="39"/>
    <path d="M154 97l38-38"/>
    <path d="M70 187l-24 24"/>
    <path d="M186 70l24-24"/>
    <circle cx="42" cy="212" r="18"/>
    <circle cx="214" cy="42" r="18"/>
  </g>
  <path d="M138 112h-13v-8h13c4 0 8-3 8-8s-4-8-8-8c-6 0-10 2-14 5l-6-6c5-5 12-9 21-9 9 0 16 5 16 15 0 7-4 12-10 14v1c7 2 12 8 12 16 0 11-9 19-22 19-9 0-17-3-23-9l6-6c4 4 10 6 17 6 7 0 12-4 12-10 0-6-4-10-14-10z" fill="#24f0c5"/>
</svg>
